<mxfile host="Electron" modified="2023-05-30T10:00:16.439Z" agent="Mozilla/5.0 (Macintosh; Intel Mac OS X 10_15_7) AppleWebKit/537.36 (KHTML, like Gecko) draw.io/21.2.8 Chrome/112.0.5615.165 Electron/24.2.0 Safari/537.36" etag="0jcvLk-C8dhRdwvJiC8Q" version="21.2.8" type="device">
  <diagram name="Страница 1" id="Lwf3m-4QlOgpuo_kP1Js">
    <mxGraphModel dx="1311" dy="1352" grid="1" gridSize="10" guides="1" tooltips="1" connect="1" arrows="1" fold="1" page="1" pageScale="1" pageWidth="2339" pageHeight="3300" math="0" shadow="0">
      <root>
        <mxCell id="0" />
        <mxCell id="1" parent="0" />
        <mxCell id="w28DLQlOVZBrRj4EJd5n-283" style="edgeStyle=orthogonalEdgeStyle;rounded=0;orthogonalLoop=1;jettySize=auto;html=1;exitX=0.5;exitY=1;exitDx=0;exitDy=0;entryX=0;entryY=0.5;entryDx=0;entryDy=0;" parent="1" source="w28DLQlOVZBrRj4EJd5n-276" target="w28DLQlOVZBrRj4EJd5n-277" edge="1">
          <mxGeometry relative="1" as="geometry" />
        </mxCell>
        <mxCell id="kmM2w1-RMvAD6R8R6hfU-154" value="&amp;nbsp;has many" style="edgeLabel;html=1;align=center;verticalAlign=middle;resizable=0;points=[];" parent="w28DLQlOVZBrRj4EJd5n-283" vertex="1" connectable="0">
          <mxGeometry x="0.3449" y="-1" relative="1" as="geometry">
            <mxPoint as="offset" />
          </mxGeometry>
        </mxCell>
        <mxCell id="kmM2w1-RMvAD6R8R6hfU-156" value="&amp;nbsp;has many" style="edgeStyle=orthogonalEdgeStyle;rounded=0;orthogonalLoop=1;jettySize=auto;html=1;exitX=0;exitY=0.5;exitDx=0;exitDy=0;entryX=1;entryY=0.5;entryDx=0;entryDy=0;" parent="1" source="w28DLQlOVZBrRj4EJd5n-276" target="w28DLQlOVZBrRj4EJd5n-280" edge="1">
          <mxGeometry relative="1" as="geometry" />
        </mxCell>
        <mxCell id="w28DLQlOVZBrRj4EJd5n-276" value="Менеджер" style="rounded=1;whiteSpace=wrap;html=1;" parent="1" vertex="1">
          <mxGeometry x="1659.38" y="750" width="120" height="60" as="geometry" />
        </mxCell>
        <mxCell id="w28DLQlOVZBrRj4EJd5n-277" value="Ставка" style="rounded=1;whiteSpace=wrap;html=1;" parent="1" vertex="1">
          <mxGeometry x="1820" y="910" width="120" height="60" as="geometry" />
        </mxCell>
        <mxCell id="kmM2w1-RMvAD6R8R6hfU-157" value="has one" style="edgeStyle=orthogonalEdgeStyle;rounded=0;orthogonalLoop=1;jettySize=auto;html=1;exitX=0.5;exitY=1;exitDx=0;exitDy=0;" parent="1" source="w28DLQlOVZBrRj4EJd5n-280" target="w28DLQlOVZBrRj4EJd5n-294" edge="1">
          <mxGeometry relative="1" as="geometry" />
        </mxCell>
        <mxCell id="w28DLQlOVZBrRj4EJd5n-280" value="Заказ" style="rounded=1;whiteSpace=wrap;html=1;strokeColor=#97D077;strokeWidth=2;" parent="1" vertex="1">
          <mxGeometry x="1419.38" y="750" width="122.5" height="60" as="geometry" />
        </mxCell>
        <mxCell id="w28DLQlOVZBrRj4EJd5n-294" value="Результат выполнения" style="rounded=1;whiteSpace=wrap;html=1;" parent="1" vertex="1">
          <mxGeometry x="1419.38" y="950" width="120" height="60" as="geometry" />
        </mxCell>
        <mxCell id="w28DLQlOVZBrRj4EJd5n-297" value="- Результат заказа&lt;br&gt;- Условие" style="shape=partialRectangle;whiteSpace=wrap;html=1;bottom=0;right=0;fillColor=none;align=left;" parent="1" vertex="1">
          <mxGeometry x="1860" y="830" width="120" height="80" as="geometry" />
        </mxCell>
        <mxCell id="frDybwBmybzaQZDUm5jS-38" value="&amp;nbsp;has one&amp;nbsp;" style="edgeStyle=orthogonalEdgeStyle;rounded=0;orthogonalLoop=1;jettySize=auto;html=1;exitX=1;exitY=0.5;exitDx=0;exitDy=0;entryX=0;entryY=0.5;entryDx=0;entryDy=0;" parent="1" source="w28DLQlOVZBrRj4EJd5n-299" target="kmM2w1-RMvAD6R8R6hfU-143" edge="1">
          <mxGeometry relative="1" as="geometry" />
        </mxCell>
        <mxCell id="w28DLQlOVZBrRj4EJd5n-299" value="Заказ" style="rounded=1;whiteSpace=wrap;html=1;strokeColor=#97D077;strokeWidth=2;" parent="1" vertex="1">
          <mxGeometry x="1419.37" y="430" width="122.5" height="60" as="geometry" />
        </mxCell>
        <mxCell id="w28DLQlOVZBrRj4EJd5n-303" value="Имя" style="rounded=1;whiteSpace=wrap;html=1;" parent="1" vertex="1">
          <mxGeometry x="40" y="2240" width="120" height="60" as="geometry" />
        </mxCell>
        <mxCell id="w28DLQlOVZBrRj4EJd5n-304" value="Владелец данных" style="text;html=1;align=left;verticalAlign=middle;resizable=0;points=[];autosize=1;strokeColor=none;fillColor=none;" parent="1" vertex="1">
          <mxGeometry x="200" y="2255" width="120" height="30" as="geometry" />
        </mxCell>
        <mxCell id="w28DLQlOVZBrRj4EJd5n-305" value="Имя" style="rounded=1;whiteSpace=wrap;html=1;strokeColor=#97D077;strokeWidth=2;" parent="1" vertex="1">
          <mxGeometry x="40" y="2360" width="120" height="60" as="geometry" />
        </mxCell>
        <mxCell id="w28DLQlOVZBrRj4EJd5n-306" value="Потребитель данных" style="text;html=1;align=left;verticalAlign=middle;resizable=0;points=[];autosize=1;strokeColor=none;fillColor=none;" parent="1" vertex="1">
          <mxGeometry x="200" y="2375" width="140" height="30" as="geometry" />
        </mxCell>
        <mxCell id="w28DLQlOVZBrRj4EJd5n-307" value="" style="endArrow=classic;html=1;rounded=0;strokeWidth=2;strokeColor=#97D077;dashed=1;dashPattern=12 12;" parent="1" edge="1">
          <mxGeometry width="50" height="50" relative="1" as="geometry">
            <mxPoint x="40" y="2520" as="sourcePoint" />
            <mxPoint x="160" y="2520" as="targetPoint" />
          </mxGeometry>
        </mxCell>
        <mxCell id="w28DLQlOVZBrRj4EJd5n-309" value="Поток данных" style="text;html=1;align=left;verticalAlign=middle;resizable=0;points=[];autosize=1;strokeColor=none;fillColor=none;" parent="1" vertex="1">
          <mxGeometry x="200" y="2500" width="100" height="30" as="geometry" />
        </mxCell>
        <mxCell id="frDybwBmybzaQZDUm5jS-41" value="&amp;nbsp;has many&amp;nbsp;" style="edgeStyle=orthogonalEdgeStyle;rounded=0;orthogonalLoop=1;jettySize=auto;html=1;exitX=1;exitY=0.5;exitDx=0;exitDy=0;entryX=0.5;entryY=0;entryDx=0;entryDy=0;" parent="1" source="w28DLQlOVZBrRj4EJd5n-310" target="kmM2w1-RMvAD6R8R6hfU-143" edge="1">
          <mxGeometry relative="1" as="geometry" />
        </mxCell>
        <mxCell id="w28DLQlOVZBrRj4EJd5n-310" value="Менеджер" style="rounded=1;whiteSpace=wrap;html=1;" parent="1" vertex="1">
          <mxGeometry x="1419.37" y="290" width="120" height="60" as="geometry" />
        </mxCell>
        <mxCell id="w28DLQlOVZBrRj4EJd5n-319" value="has one" style="edgeStyle=orthogonalEdgeStyle;rounded=0;orthogonalLoop=1;jettySize=auto;html=1;exitX=0.5;exitY=1;exitDx=0;exitDy=0;" parent="1" source="w28DLQlOVZBrRj4EJd5n-317" edge="1">
          <mxGeometry relative="1" as="geometry">
            <Array as="points">
              <mxPoint x="1480.0100000000002" y="1882.5" />
              <mxPoint x="1480.0100000000002" y="1882.5" />
            </Array>
            <mxPoint x="1479.38" y="1930" as="targetPoint" />
          </mxGeometry>
        </mxCell>
        <mxCell id="w28DLQlOVZBrRj4EJd5n-317" value="Клиент" style="rounded=1;whiteSpace=wrap;html=1;strokeColor=#97D077;strokeWidth=2;" parent="1" vertex="1">
          <mxGeometry x="1418.7600000000002" y="1790" width="122.5" height="60" as="geometry" />
        </mxCell>
        <mxCell id="w28DLQlOVZBrRj4EJd5n-321" value="&amp;nbsp;has many&amp;nbsp;" style="edgeStyle=orthogonalEdgeStyle;rounded=0;orthogonalLoop=1;jettySize=auto;html=1;exitX=1;exitY=0.5;exitDx=0;exitDy=0;entryX=0;entryY=0.5;entryDx=0;entryDy=0;" parent="1" source="w28DLQlOVZBrRj4EJd5n-318" edge="1">
          <mxGeometry relative="1" as="geometry">
            <mxPoint x="1660.0100000000002" y="1957.5" as="targetPoint" />
          </mxGeometry>
        </mxCell>
        <mxCell id="w28DLQlOVZBrRj4EJd5n-318" value="Аккаунт" style="rounded=1;whiteSpace=wrap;html=1;" parent="1" vertex="1">
          <mxGeometry x="1418.7600000000002" y="1930" width="120" height="60" as="geometry" />
        </mxCell>
        <mxCell id="w28DLQlOVZBrRj4EJd5n-322" value="Списание средств" style="rounded=1;whiteSpace=wrap;html=1;" parent="1" vertex="1">
          <mxGeometry x="1658.7600000000002" y="1930" width="120" height="60" as="geometry" />
        </mxCell>
        <mxCell id="w28DLQlOVZBrRj4EJd5n-340" value="&amp;nbsp;has many&amp;nbsp;" style="edgeStyle=orthogonalEdgeStyle;rounded=0;orthogonalLoop=1;jettySize=auto;html=1;exitX=1;exitY=0.5;exitDx=0;exitDy=0;entryX=0;entryY=0.5;entryDx=0;entryDy=0;" parent="1" source="w28DLQlOVZBrRj4EJd5n-326" target="w28DLQlOVZBrRj4EJd5n-339" edge="1">
          <mxGeometry relative="1" as="geometry" />
        </mxCell>
        <mxCell id="w28DLQlOVZBrRj4EJd5n-326" value="Расписание" style="rounded=1;whiteSpace=wrap;html=1;" parent="1" vertex="1">
          <mxGeometry x="1659.38" y="2400" width="120" height="60" as="geometry" />
        </mxCell>
        <mxCell id="w28DLQlOVZBrRj4EJd5n-329" value="has many" style="edgeStyle=orthogonalEdgeStyle;rounded=0;orthogonalLoop=1;jettySize=auto;html=1;exitX=0.5;exitY=1;exitDx=0;exitDy=0;" parent="1" edge="1">
          <mxGeometry x="0.0323" relative="1" as="geometry">
            <mxPoint x="1720.0100000000002" y="1850" as="sourcePoint" />
            <mxPoint x="1720.0100000000002" y="1927.5" as="targetPoint" />
            <mxPoint as="offset" />
          </mxGeometry>
        </mxCell>
        <mxCell id="w28DLQlOVZBrRj4EJd5n-327" value="Событие списания" style="rounded=1;whiteSpace=wrap;html=1;" parent="1" vertex="1">
          <mxGeometry x="1660.0100000000002" y="1790" width="120" height="60" as="geometry" />
        </mxCell>
        <mxCell id="w28DLQlOVZBrRj4EJd5n-333" style="edgeStyle=orthogonalEdgeStyle;rounded=0;orthogonalLoop=1;jettySize=auto;html=1;exitX=1;exitY=0.5;exitDx=0;exitDy=0;" parent="1" source="w28DLQlOVZBrRj4EJd5n-331" target="w28DLQlOVZBrRj4EJd5n-332" edge="1">
          <mxGeometry relative="1" as="geometry" />
        </mxCell>
        <mxCell id="w28DLQlOVZBrRj4EJd5n-334" value="&amp;nbsp;has one&amp;nbsp;" style="edgeLabel;html=1;align=center;verticalAlign=middle;resizable=0;points=[];" parent="w28DLQlOVZBrRj4EJd5n-333" vertex="1" connectable="0">
          <mxGeometry x="-0.1116" relative="1" as="geometry">
            <mxPoint as="offset" />
          </mxGeometry>
        </mxCell>
        <mxCell id="w28DLQlOVZBrRj4EJd5n-331" value="Воркер" style="rounded=1;whiteSpace=wrap;html=1;strokeColor=#97D077;strokeWidth=2;" parent="1" vertex="1">
          <mxGeometry x="1419.38" y="2248.75" width="122.5" height="60" as="geometry" />
        </mxCell>
        <mxCell id="w28DLQlOVZBrRj4EJd5n-342" value="&amp;nbsp;has many&amp;nbsp;" style="edgeStyle=orthogonalEdgeStyle;rounded=0;orthogonalLoop=1;jettySize=auto;html=1;exitX=1;exitY=0.5;exitDx=0;exitDy=0;" parent="1" source="w28DLQlOVZBrRj4EJd5n-332" edge="1">
          <mxGeometry relative="1" as="geometry">
            <mxPoint x="1900" y="2280" as="targetPoint" />
          </mxGeometry>
        </mxCell>
        <mxCell id="w28DLQlOVZBrRj4EJd5n-332" value="Аккаунт" style="rounded=1;whiteSpace=wrap;html=1;" parent="1" vertex="1">
          <mxGeometry x="1659.38" y="2248.75" width="120" height="60" as="geometry" />
        </mxCell>
        <mxCell id="w28DLQlOVZBrRj4EJd5n-336" value="Начисление средств" style="rounded=1;whiteSpace=wrap;html=1;" parent="1" vertex="1">
          <mxGeometry x="1898.7600000000002" y="2248.75" width="120" height="60" as="geometry" />
        </mxCell>
        <mxCell id="kmM2w1-RMvAD6R8R6hfU-151" value="" style="edgeStyle=orthogonalEdgeStyle;rounded=0;orthogonalLoop=1;jettySize=auto;html=1;" parent="1" source="w28DLQlOVZBrRj4EJd5n-339" target="w28DLQlOVZBrRj4EJd5n-336" edge="1">
          <mxGeometry relative="1" as="geometry" />
        </mxCell>
        <mxCell id="w28DLQlOVZBrRj4EJd5n-339" value="Событие начисления" style="rounded=1;whiteSpace=wrap;html=1;" parent="1" vertex="1">
          <mxGeometry x="1898.7600000000002" y="2400" width="120" height="60" as="geometry" />
        </mxCell>
        <mxCell id="w28DLQlOVZBrRj4EJd5n-343" value="- Штрафы" style="shape=partialRectangle;whiteSpace=wrap;html=1;bottom=0;right=0;fillColor=none;align=left;" parent="1" vertex="1">
          <mxGeometry x="1720.0000000000002" y="2201.25" width="120" height="47.5" as="geometry" />
        </mxCell>
        <mxCell id="w28DLQlOVZBrRj4EJd5n-344" value="- Скидка" style="shape=partialRectangle;whiteSpace=wrap;html=1;bottom=0;right=0;fillColor=none;align=left;" parent="1" vertex="1">
          <mxGeometry x="1520.0100000000002" y="1880" width="120" height="47.5" as="geometry" />
        </mxCell>
        <mxCell id="kmM2w1-RMvAD6R8R6hfU-49" style="edgeStyle=orthogonalEdgeStyle;rounded=0;orthogonalLoop=1;jettySize=auto;html=1;exitX=0.5;exitY=1;exitDx=0;exitDy=0;entryX=0.5;entryY=0;entryDx=0;entryDy=0;" parent="1" source="kmM2w1-RMvAD6R8R6hfU-27" target="kmM2w1-RMvAD6R8R6hfU-45" edge="1">
          <mxGeometry relative="1" as="geometry" />
        </mxCell>
        <mxCell id="kmM2w1-RMvAD6R8R6hfU-50" value="has many" style="edgeLabel;html=1;align=center;verticalAlign=middle;resizable=0;points=[];" parent="kmM2w1-RMvAD6R8R6hfU-49" vertex="1" connectable="0">
          <mxGeometry x="-0.2186" y="2" relative="1" as="geometry">
            <mxPoint as="offset" />
          </mxGeometry>
        </mxCell>
        <mxCell id="kmM2w1-RMvAD6R8R6hfU-51" style="edgeStyle=orthogonalEdgeStyle;rounded=0;orthogonalLoop=1;jettySize=auto;html=1;exitX=0.5;exitY=0;exitDx=0;exitDy=0;" parent="1" source="kmM2w1-RMvAD6R8R6hfU-27" target="kmM2w1-RMvAD6R8R6hfU-28" edge="1">
          <mxGeometry relative="1" as="geometry" />
        </mxCell>
        <mxCell id="kmM2w1-RMvAD6R8R6hfU-52" value="has many" style="edgeLabel;html=1;align=center;verticalAlign=middle;resizable=0;points=[];" parent="kmM2w1-RMvAD6R8R6hfU-51" vertex="1" connectable="0">
          <mxGeometry x="0.2382" y="3" relative="1" as="geometry">
            <mxPoint as="offset" />
          </mxGeometry>
        </mxCell>
        <mxCell id="frDybwBmybzaQZDUm5jS-24" value="&amp;nbsp;has many&amp;nbsp;" style="edgeStyle=orthogonalEdgeStyle;rounded=0;orthogonalLoop=1;jettySize=auto;html=1;exitX=1;exitY=0.5;exitDx=0;exitDy=0;entryX=0;entryY=0.5;entryDx=0;entryDy=0;" parent="1" source="kmM2w1-RMvAD6R8R6hfU-27" target="frDybwBmybzaQZDUm5jS-21" edge="1">
          <mxGeometry relative="1" as="geometry" />
        </mxCell>
        <mxCell id="eW2-b08OkGmagCqz1LRZ-2" value="&amp;nbsp;has many&amp;nbsp;" style="edgeStyle=orthogonalEdgeStyle;rounded=0;orthogonalLoop=1;jettySize=auto;html=1;exitX=0;exitY=0.5;exitDx=0;exitDy=0;" edge="1" parent="1" source="kmM2w1-RMvAD6R8R6hfU-27" target="eW2-b08OkGmagCqz1LRZ-1">
          <mxGeometry relative="1" as="geometry" />
        </mxCell>
        <mxCell id="kmM2w1-RMvAD6R8R6hfU-27" value="Менеджер" style="rounded=1;whiteSpace=wrap;html=1;" parent="1" vertex="1">
          <mxGeometry x="740" y="1750" width="120" height="60" as="geometry" />
        </mxCell>
        <mxCell id="kmM2w1-RMvAD6R8R6hfU-53" style="edgeStyle=orthogonalEdgeStyle;rounded=0;orthogonalLoop=1;jettySize=auto;html=1;exitX=0;exitY=0.5;exitDx=0;exitDy=0;entryX=1;entryY=0.5;entryDx=0;entryDy=0;" parent="1" source="kmM2w1-RMvAD6R8R6hfU-28" target="kmM2w1-RMvAD6R8R6hfU-29" edge="1">
          <mxGeometry relative="1" as="geometry" />
        </mxCell>
        <mxCell id="kmM2w1-RMvAD6R8R6hfU-54" value="&amp;nbsp;has many&amp;nbsp;" style="edgeLabel;html=1;align=center;verticalAlign=middle;resizable=0;points=[];" parent="kmM2w1-RMvAD6R8R6hfU-53" vertex="1" connectable="0">
          <mxGeometry x="0.1441" y="-2" relative="1" as="geometry">
            <mxPoint as="offset" />
          </mxGeometry>
        </mxCell>
        <mxCell id="kmM2w1-RMvAD6R8R6hfU-28" value="Воркер" style="rounded=1;whiteSpace=wrap;html=1;" parent="1" vertex="1">
          <mxGeometry x="740" y="1570" width="120" height="60" as="geometry" />
        </mxCell>
        <mxCell id="kmM2w1-RMvAD6R8R6hfU-29" value="Характеристики" style="rounded=1;whiteSpace=wrap;html=1;" parent="1" vertex="1">
          <mxGeometry x="461.25" y="1570" width="120" height="60" as="geometry" />
        </mxCell>
        <mxCell id="kmM2w1-RMvAD6R8R6hfU-43" style="edgeStyle=orthogonalEdgeStyle;rounded=0;orthogonalLoop=1;jettySize=auto;html=1;exitX=1;exitY=0.5;exitDx=0;exitDy=0;entryX=0;entryY=0.5;entryDx=0;entryDy=0;" parent="1" source="kmM2w1-RMvAD6R8R6hfU-32" target="kmM2w1-RMvAD6R8R6hfU-37" edge="1">
          <mxGeometry relative="1" as="geometry" />
        </mxCell>
        <mxCell id="kmM2w1-RMvAD6R8R6hfU-44" value="&amp;nbsp;has one&amp;nbsp;" style="edgeLabel;html=1;align=center;verticalAlign=middle;resizable=0;points=[];" parent="kmM2w1-RMvAD6R8R6hfU-43" vertex="1" connectable="0">
          <mxGeometry x="0.1031" y="-1" relative="1" as="geometry">
            <mxPoint as="offset" />
          </mxGeometry>
        </mxCell>
        <mxCell id="kmM2w1-RMvAD6R8R6hfU-32" value="Кандидат" style="rounded=1;whiteSpace=wrap;html=1;" parent="1" vertex="1">
          <mxGeometry x="461.25" y="2030" width="120" height="60" as="geometry" />
        </mxCell>
        <mxCell id="kmM2w1-RMvAD6R8R6hfU-46" style="edgeStyle=orthogonalEdgeStyle;rounded=0;orthogonalLoop=1;jettySize=auto;html=1;exitX=0.5;exitY=0;exitDx=0;exitDy=0;" parent="1" source="kmM2w1-RMvAD6R8R6hfU-37" target="kmM2w1-RMvAD6R8R6hfU-45" edge="1">
          <mxGeometry relative="1" as="geometry" />
        </mxCell>
        <mxCell id="kmM2w1-RMvAD6R8R6hfU-47" value="&amp;nbsp;has one&amp;nbsp;" style="edgeLabel;html=1;align=center;verticalAlign=middle;resizable=0;points=[];" parent="kmM2w1-RMvAD6R8R6hfU-46" vertex="1" connectable="0">
          <mxGeometry x="-0.2167" relative="1" as="geometry">
            <mxPoint as="offset" />
          </mxGeometry>
        </mxCell>
        <mxCell id="kmM2w1-RMvAD6R8R6hfU-37" value="Набор тестов" style="rounded=1;whiteSpace=wrap;html=1;" parent="1" vertex="1">
          <mxGeometry x="740" y="2030" width="120" height="60" as="geometry" />
        </mxCell>
        <mxCell id="kmM2w1-RMvAD6R8R6hfU-45" value="Решенный тест" style="rounded=1;whiteSpace=wrap;html=1;" parent="1" vertex="1">
          <mxGeometry x="740" y="1890" width="120" height="60" as="geometry" />
        </mxCell>
        <mxCell id="kmM2w1-RMvAD6R8R6hfU-55" value="- Статус&lt;br&gt;- Описание&lt;br&gt;- Заказчик&lt;br&gt;- Deadline" style="shape=partialRectangle;whiteSpace=wrap;html=1;bottom=0;right=0;fillColor=none;align=left;" parent="1" vertex="1">
          <mxGeometry x="1098.75" y="950" width="70" height="90" as="geometry" />
        </mxCell>
        <mxCell id="kmM2w1-RMvAD6R8R6hfU-123" style="edgeStyle=orthogonalEdgeStyle;rounded=0;orthogonalLoop=1;jettySize=auto;html=1;exitX=0.25;exitY=0;exitDx=0;exitDy=0;entryX=0.5;entryY=1;entryDx=0;entryDy=0;" parent="1" source="kmM2w1-RMvAD6R8R6hfU-57" target="kmM2w1-RMvAD6R8R6hfU-121" edge="1">
          <mxGeometry relative="1" as="geometry" />
        </mxCell>
        <mxCell id="kmM2w1-RMvAD6R8R6hfU-124" value="&amp;nbsp;has many&amp;nbsp;" style="edgeLabel;html=1;align=center;verticalAlign=middle;resizable=0;points=[];" parent="kmM2w1-RMvAD6R8R6hfU-123" vertex="1" connectable="0">
          <mxGeometry x="0.1448" y="-2" relative="1" as="geometry">
            <mxPoint x="20" as="offset" />
          </mxGeometry>
        </mxCell>
        <mxCell id="frDybwBmybzaQZDUm5jS-61" style="edgeStyle=orthogonalEdgeStyle;rounded=0;orthogonalLoop=1;jettySize=auto;html=1;exitX=0.5;exitY=0;exitDx=0;exitDy=0;entryX=0.5;entryY=1;entryDx=0;entryDy=0;" parent="1" source="kmM2w1-RMvAD6R8R6hfU-57" target="kmM2w1-RMvAD6R8R6hfU-89" edge="1">
          <mxGeometry relative="1" as="geometry" />
        </mxCell>
        <mxCell id="frDybwBmybzaQZDUm5jS-62" value="&amp;nbsp;has one&amp;nbsp;" style="edgeLabel;html=1;align=center;verticalAlign=middle;resizable=0;points=[];" parent="frDybwBmybzaQZDUm5jS-61" vertex="1" connectable="0">
          <mxGeometry x="0.0718" y="2" relative="1" as="geometry">
            <mxPoint as="offset" />
          </mxGeometry>
        </mxCell>
        <mxCell id="kmM2w1-RMvAD6R8R6hfU-57" value="Заказ" style="rounded=1;whiteSpace=wrap;html=1;" parent="1" vertex="1">
          <mxGeometry x="1018.75" y="1040" width="120" height="60" as="geometry" />
        </mxCell>
        <mxCell id="kmM2w1-RMvAD6R8R6hfU-58" style="edgeStyle=orthogonalEdgeStyle;rounded=0;orthogonalLoop=1;jettySize=auto;html=1;exitX=0;exitY=0.5;exitDx=0;exitDy=0;" parent="1" source="kmM2w1-RMvAD6R8R6hfU-64" target="kmM2w1-RMvAD6R8R6hfU-65" edge="1">
          <mxGeometry relative="1" as="geometry" />
        </mxCell>
        <mxCell id="kmM2w1-RMvAD6R8R6hfU-59" value="has many" style="edgeLabel;html=1;align=center;verticalAlign=middle;resizable=0;points=[];" parent="kmM2w1-RMvAD6R8R6hfU-58" vertex="1" connectable="0">
          <mxGeometry x="0.1174" y="-1" relative="1" as="geometry">
            <mxPoint as="offset" />
          </mxGeometry>
        </mxCell>
        <mxCell id="kmM2w1-RMvAD6R8R6hfU-60" style="edgeStyle=orthogonalEdgeStyle;rounded=0;orthogonalLoop=1;jettySize=auto;html=1;exitX=1;exitY=0.5;exitDx=0;exitDy=0;" parent="1" source="kmM2w1-RMvAD6R8R6hfU-64" target="kmM2w1-RMvAD6R8R6hfU-66" edge="1">
          <mxGeometry relative="1" as="geometry" />
        </mxCell>
        <mxCell id="kmM2w1-RMvAD6R8R6hfU-61" value="has one" style="edgeLabel;html=1;align=center;verticalAlign=middle;resizable=0;points=[];" parent="kmM2w1-RMvAD6R8R6hfU-60" vertex="1" connectable="0">
          <mxGeometry x="0.1793" y="2" relative="1" as="geometry">
            <mxPoint as="offset" />
          </mxGeometry>
        </mxCell>
        <mxCell id="kmM2w1-RMvAD6R8R6hfU-62" style="edgeStyle=orthogonalEdgeStyle;rounded=0;orthogonalLoop=1;jettySize=auto;html=1;exitX=0.5;exitY=0;exitDx=0;exitDy=0;entryX=0;entryY=0.5;entryDx=0;entryDy=0;" parent="1" source="kmM2w1-RMvAD6R8R6hfU-64" target="kmM2w1-RMvAD6R8R6hfU-57" edge="1">
          <mxGeometry relative="1" as="geometry" />
        </mxCell>
        <mxCell id="kmM2w1-RMvAD6R8R6hfU-63" value="&amp;nbsp;has many&amp;nbsp;" style="edgeLabel;html=1;align=center;verticalAlign=middle;resizable=0;points=[];" parent="kmM2w1-RMvAD6R8R6hfU-62" vertex="1" connectable="0">
          <mxGeometry x="0.3825" y="1" relative="1" as="geometry">
            <mxPoint as="offset" />
          </mxGeometry>
        </mxCell>
        <mxCell id="kmM2w1-RMvAD6R8R6hfU-87" value="&amp;nbsp;has many&amp;nbsp;" style="edgeStyle=orthogonalEdgeStyle;rounded=0;orthogonalLoop=1;jettySize=auto;html=1;exitX=0.25;exitY=0;exitDx=0;exitDy=0;entryX=0.5;entryY=1;entryDx=0;entryDy=0;" parent="1" source="kmM2w1-RMvAD6R8R6hfU-64" target="kmM2w1-RMvAD6R8R6hfU-69" edge="1">
          <mxGeometry relative="1" as="geometry">
            <Array as="points">
              <mxPoint x="731" y="1000" />
              <mxPoint x="511" y="1000" />
            </Array>
          </mxGeometry>
        </mxCell>
        <mxCell id="kmM2w1-RMvAD6R8R6hfU-64" value="Клиент" style="rounded=1;whiteSpace=wrap;html=1;" parent="1" vertex="1">
          <mxGeometry x="701.25" y="1110" width="120" height="60" as="geometry" />
        </mxCell>
        <mxCell id="kmM2w1-RMvAD6R8R6hfU-65" value="Характеристики" style="rounded=1;whiteSpace=wrap;html=1;" parent="1" vertex="1">
          <mxGeometry x="581.25" y="1270" width="120" height="60" as="geometry" />
        </mxCell>
        <mxCell id="kmM2w1-RMvAD6R8R6hfU-66" value="История заказов" style="rounded=1;whiteSpace=wrap;html=1;" parent="1" vertex="1">
          <mxGeometry x="821.25" y="1270" width="120" height="60" as="geometry" />
        </mxCell>
        <mxCell id="kmM2w1-RMvAD6R8R6hfU-69" value="Доступные услуги и цены" style="rounded=1;whiteSpace=wrap;html=1;" parent="1" vertex="1">
          <mxGeometry x="451.25" y="880" width="120" height="60" as="geometry" />
        </mxCell>
        <mxCell id="kmM2w1-RMvAD6R8R6hfU-115" style="edgeStyle=orthogonalEdgeStyle;rounded=0;orthogonalLoop=1;jettySize=auto;html=1;exitX=1;exitY=0.75;exitDx=0;exitDy=0;" parent="1" source="kmM2w1-RMvAD6R8R6hfU-74" target="kmM2w1-RMvAD6R8R6hfU-84" edge="1">
          <mxGeometry relative="1" as="geometry">
            <Array as="points">
              <mxPoint x="704" y="290" />
              <mxPoint x="851" y="290" />
            </Array>
          </mxGeometry>
        </mxCell>
        <mxCell id="kmM2w1-RMvAD6R8R6hfU-116" value="has many" style="edgeLabel;html=1;align=center;verticalAlign=middle;resizable=0;points=[];" parent="kmM2w1-RMvAD6R8R6hfU-115" vertex="1" connectable="0">
          <mxGeometry x="-0.1965" relative="1" as="geometry">
            <mxPoint x="-19" y="-5" as="offset" />
          </mxGeometry>
        </mxCell>
        <mxCell id="frDybwBmybzaQZDUm5jS-52" style="edgeStyle=orthogonalEdgeStyle;rounded=0;orthogonalLoop=1;jettySize=auto;html=1;exitX=0;exitY=0.5;exitDx=0;exitDy=0;entryX=0.5;entryY=0;entryDx=0;entryDy=0;" parent="1" source="kmM2w1-RMvAD6R8R6hfU-74" target="frDybwBmybzaQZDUm5jS-51" edge="1">
          <mxGeometry relative="1" as="geometry" />
        </mxCell>
        <mxCell id="frDybwBmybzaQZDUm5jS-55" value="&amp;nbsp; has many&amp;nbsp;" style="edgeStyle=orthogonalEdgeStyle;rounded=0;orthogonalLoop=1;jettySize=auto;html=1;exitX=0.5;exitY=0;exitDx=0;exitDy=0;" parent="1" source="kmM2w1-RMvAD6R8R6hfU-74" target="kmM2w1-RMvAD6R8R6hfU-75" edge="1">
          <mxGeometry relative="1" as="geometry">
            <Array as="points">
              <mxPoint x="644" y="230" />
              <mxPoint x="644" y="230" />
            </Array>
          </mxGeometry>
        </mxCell>
        <mxCell id="kmM2w1-RMvAD6R8R6hfU-74" value="Алгоритм матчинга" style="rounded=1;whiteSpace=wrap;html=1;" parent="1" vertex="1">
          <mxGeometry x="583.75" y="260" width="120" height="60" as="geometry" />
        </mxCell>
        <mxCell id="kmM2w1-RMvAD6R8R6hfU-75" value="Шаги" style="rounded=1;whiteSpace=wrap;html=1;" parent="1" vertex="1">
          <mxGeometry x="583.75" y="140" width="120" height="60" as="geometry" />
        </mxCell>
        <mxCell id="frDybwBmybzaQZDUm5jS-56" value="&amp;nbsp;has many&amp;nbsp;" style="edgeStyle=orthogonalEdgeStyle;rounded=0;orthogonalLoop=1;jettySize=auto;html=1;exitX=1;exitY=0.5;exitDx=0;exitDy=0;entryX=0;entryY=0.5;entryDx=0;entryDy=0;" parent="1" source="kmM2w1-RMvAD6R8R6hfU-84" target="kmM2w1-RMvAD6R8R6hfU-86" edge="1">
          <mxGeometry relative="1" as="geometry" />
        </mxCell>
        <mxCell id="frDybwBmybzaQZDUm5jS-57" value="&amp;nbsp;has one&amp;nbsp;" style="edgeStyle=orthogonalEdgeStyle;rounded=0;orthogonalLoop=1;jettySize=auto;html=1;exitX=0.75;exitY=1;exitDx=0;exitDy=0;entryX=0;entryY=0.5;entryDx=0;entryDy=0;" parent="1" source="kmM2w1-RMvAD6R8R6hfU-84" target="kmM2w1-RMvAD6R8R6hfU-85" edge="1">
          <mxGeometry relative="1" as="geometry">
            <Array as="points">
              <mxPoint x="880" y="200" />
              <mxPoint x="880" y="310" />
            </Array>
          </mxGeometry>
        </mxCell>
        <mxCell id="kmM2w1-RMvAD6R8R6hfU-84" value="Воркер" style="rounded=1;whiteSpace=wrap;html=1;strokeColor=#97D077;strokeWidth=2;" parent="1" vertex="1">
          <mxGeometry x="790" y="140" width="122.5" height="60" as="geometry" />
        </mxCell>
        <mxCell id="kmM2w1-RMvAD6R8R6hfU-85" value="История заказов" style="rounded=1;whiteSpace=wrap;html=1;strokeColor=#000000;strokeWidth=1;" parent="1" vertex="1">
          <mxGeometry x="1040" y="280" width="120" height="60" as="geometry" />
        </mxCell>
        <mxCell id="kmM2w1-RMvAD6R8R6hfU-86" value="Характеристики" style="rounded=1;whiteSpace=wrap;html=1;" parent="1" vertex="1">
          <mxGeometry x="1040" y="140" width="120" height="60" as="geometry" />
        </mxCell>
        <mxCell id="kmM2w1-RMvAD6R8R6hfU-93" value="&amp;nbsp;has many&amp;nbsp;" style="edgeStyle=orthogonalEdgeStyle;rounded=0;orthogonalLoop=1;jettySize=auto;html=1;exitX=0.5;exitY=1;exitDx=0;exitDy=0;entryX=0.5;entryY=0;entryDx=0;entryDy=0;" parent="1" source="kmM2w1-RMvAD6R8R6hfU-88" target="kmM2w1-RMvAD6R8R6hfU-69" edge="1">
          <mxGeometry relative="1" as="geometry" />
        </mxCell>
        <mxCell id="kmM2w1-RMvAD6R8R6hfU-88" value="Менеджер" style="rounded=1;whiteSpace=wrap;html=1;" parent="1" vertex="1">
          <mxGeometry x="451.25" y="710" width="120" height="60" as="geometry" />
        </mxCell>
        <mxCell id="kmM2w1-RMvAD6R8R6hfU-89" value="Воркер&lt;br&gt;(исполнитель заказа)" style="rounded=1;whiteSpace=wrap;html=1;strokeWidth=2;strokeColor=#97D077;" parent="1" vertex="1">
          <mxGeometry x="1018.75" y="720" width="120" height="60" as="geometry" />
        </mxCell>
        <mxCell id="frDybwBmybzaQZDUm5jS-48" style="edgeStyle=orthogonalEdgeStyle;rounded=0;orthogonalLoop=1;jettySize=auto;html=1;exitX=0.5;exitY=0;exitDx=0;exitDy=0;" parent="1" source="kmM2w1-RMvAD6R8R6hfU-95" target="kmM2w1-RMvAD6R8R6hfU-74" edge="1">
          <mxGeometry relative="1" as="geometry" />
        </mxCell>
        <mxCell id="frDybwBmybzaQZDUm5jS-49" value="&amp;nbsp;has one&amp;nbsp;" style="edgeLabel;html=1;align=center;verticalAlign=middle;resizable=0;points=[];" parent="frDybwBmybzaQZDUm5jS-48" vertex="1" connectable="0">
          <mxGeometry x="0.0427" y="2" relative="1" as="geometry">
            <mxPoint as="offset" />
          </mxGeometry>
        </mxCell>
        <mxCell id="kmM2w1-RMvAD6R8R6hfU-95" value="Заказ" style="rounded=1;whiteSpace=wrap;html=1;strokeColor=#97D077;strokeWidth=2;" parent="1" vertex="1">
          <mxGeometry x="581.25" y="420" width="122.5" height="60" as="geometry" />
        </mxCell>
        <mxCell id="kmM2w1-RMvAD6R8R6hfU-121" value="Фото подтверждающих документов" style="rounded=1;whiteSpace=wrap;html=1;" parent="1" vertex="1">
          <mxGeometry x="851.25" y="830" width="120" height="60" as="geometry" />
        </mxCell>
        <mxCell id="frDybwBmybzaQZDUm5jS-31" value="&amp;nbsp;has one&amp;nbsp;" style="edgeStyle=orthogonalEdgeStyle;rounded=0;orthogonalLoop=1;jettySize=auto;html=1;exitX=0.5;exitY=1;exitDx=0;exitDy=0;entryX=0.5;entryY=0;entryDx=0;entryDy=0;" parent="1" source="kmM2w1-RMvAD6R8R6hfU-127" target="kmM2w1-RMvAD6R8R6hfU-130" edge="1">
          <mxGeometry relative="1" as="geometry" />
        </mxCell>
        <mxCell id="kmM2w1-RMvAD6R8R6hfU-127" value="Заказ" style="rounded=1;whiteSpace=wrap;html=1;strokeColor=#97D077;strokeWidth=2;" parent="1" vertex="1">
          <mxGeometry x="1418.76" y="1300" width="120" height="60" as="geometry" />
        </mxCell>
        <mxCell id="frDybwBmybzaQZDUm5jS-28" style="edgeStyle=orthogonalEdgeStyle;rounded=0;orthogonalLoop=1;jettySize=auto;html=1;exitX=0;exitY=0.5;exitDx=0;exitDy=0;entryX=1;entryY=0.5;entryDx=0;entryDy=0;" parent="1" source="kmM2w1-RMvAD6R8R6hfU-129" target="kmM2w1-RMvAD6R8R6hfU-130" edge="1">
          <mxGeometry relative="1" as="geometry" />
        </mxCell>
        <mxCell id="frDybwBmybzaQZDUm5jS-29" value="&amp;nbsp;has many&amp;nbsp;" style="edgeLabel;html=1;align=center;verticalAlign=middle;resizable=0;points=[];" parent="frDybwBmybzaQZDUm5jS-28" vertex="1" connectable="0">
          <mxGeometry x="-0.1464" y="-1" relative="1" as="geometry">
            <mxPoint as="offset" />
          </mxGeometry>
        </mxCell>
        <mxCell id="frDybwBmybzaQZDUm5jS-59" value="&amp;nbsp;has many&amp;nbsp;" style="edgeStyle=orthogonalEdgeStyle;rounded=0;orthogonalLoop=1;jettySize=auto;html=1;exitX=0.5;exitY=0;exitDx=0;exitDy=0;entryX=0.5;entryY=1;entryDx=0;entryDy=0;" parent="1" source="kmM2w1-RMvAD6R8R6hfU-129" target="frDybwBmybzaQZDUm5jS-32" edge="1">
          <mxGeometry relative="1" as="geometry" />
        </mxCell>
        <mxCell id="kmM2w1-RMvAD6R8R6hfU-129" value="Сотрудник отдела расходников" style="rounded=1;whiteSpace=wrap;html=1;" parent="1" vertex="1">
          <mxGeometry x="1737.52" y="1500" width="120" height="60" as="geometry" />
        </mxCell>
        <mxCell id="kmM2w1-RMvAD6R8R6hfU-130" value="Комплект расходников" style="rounded=1;whiteSpace=wrap;html=1;" parent="1" vertex="1">
          <mxGeometry x="1418.76" y="1500" width="120" height="60" as="geometry" />
        </mxCell>
        <mxCell id="kmM2w1-RMvAD6R8R6hfU-143" value="Результат проверки" style="rounded=1;whiteSpace=wrap;html=1;" parent="1" vertex="1">
          <mxGeometry x="1620" y="430" width="120" height="60" as="geometry" />
        </mxCell>
        <mxCell id="frDybwBmybzaQZDUm5jS-1" value="" style="verticalLabelPosition=bottom;verticalAlign=top;html=1;shape=mxgraph.basic.rounded_frame;dx=3;whiteSpace=wrap;fillColor=#000000;" parent="1" vertex="1">
          <mxGeometry x="400" y="1510" width="770" height="640" as="geometry" />
        </mxCell>
        <mxCell id="frDybwBmybzaQZDUm5jS-2" value="Тестирование и выявление характеристик воркеров" style="text;html=1;strokeColor=none;fillColor=none;align=left;verticalAlign=top;whiteSpace=wrap;rounded=0;" parent="1" vertex="1">
          <mxGeometry x="410" y="1520" width="310" height="30" as="geometry" />
        </mxCell>
        <mxCell id="frDybwBmybzaQZDUm5jS-3" value="" style="verticalLabelPosition=bottom;verticalAlign=top;html=1;shape=mxgraph.basic.rounded_frame;dx=3;whiteSpace=wrap;fillColor=#000000;" parent="1" vertex="1">
          <mxGeometry x="1340" y="1740" width="760" height="360" as="geometry" />
        </mxCell>
        <mxCell id="frDybwBmybzaQZDUm5jS-4" value="Расчет и списание оплаты услуг с клиентов" style="text;html=1;strokeColor=none;fillColor=none;align=left;verticalAlign=top;whiteSpace=wrap;rounded=0;" parent="1" vertex="1">
          <mxGeometry x="1350" y="1750" width="277.5" height="30" as="geometry" />
        </mxCell>
        <mxCell id="frDybwBmybzaQZDUm5jS-5" value="" style="verticalLabelPosition=bottom;verticalAlign=top;html=1;shape=mxgraph.basic.rounded_frame;dx=3;whiteSpace=wrap;fillColor=#000000;" parent="1" vertex="1">
          <mxGeometry x="400" y="630" width="820" height="760" as="geometry" />
        </mxCell>
        <mxCell id="frDybwBmybzaQZDUm5jS-6" value="Обработка заказов" style="text;html=1;strokeColor=none;fillColor=none;align=left;verticalAlign=top;whiteSpace=wrap;rounded=0;" parent="1" vertex="1">
          <mxGeometry x="410" y="640" width="260" height="30" as="geometry" />
        </mxCell>
        <mxCell id="frDybwBmybzaQZDUm5jS-7" value="" style="verticalLabelPosition=bottom;verticalAlign=top;html=1;shape=mxgraph.basic.rounded_frame;dx=3;whiteSpace=wrap;strokeColor=#000000;fillColor=#000000;" parent="1" vertex="1">
          <mxGeometry x="1340" y="1230" width="760" height="390" as="geometry" />
        </mxCell>
        <mxCell id="frDybwBmybzaQZDUm5jS-8" value="Склад расходников и комплектация заказа" style="text;html=1;strokeColor=none;fillColor=none;align=left;verticalAlign=top;whiteSpace=wrap;rounded=0;" parent="1" vertex="1">
          <mxGeometry x="1520.01" y="1240.5" width="280" height="30" as="geometry" />
        </mxCell>
        <mxCell id="frDybwBmybzaQZDUm5jS-9" value="" style="verticalLabelPosition=bottom;verticalAlign=top;html=1;shape=mxgraph.basic.rounded_frame;dx=3;whiteSpace=wrap;strokeColor=#000000;fillColor=#000000;" parent="1" vertex="1">
          <mxGeometry x="1340" y="670" width="680" height="420" as="geometry" />
        </mxCell>
        <mxCell id="frDybwBmybzaQZDUm5jS-10" value="Система ставок для менеджеров" style="text;html=1;strokeColor=none;fillColor=none;align=left;verticalAlign=top;whiteSpace=wrap;rounded=0;" parent="1" vertex="1">
          <mxGeometry x="1350" y="680" width="240.5" height="30" as="geometry" />
        </mxCell>
        <mxCell id="frDybwBmybzaQZDUm5jS-11" value="" style="verticalLabelPosition=bottom;verticalAlign=top;html=1;shape=mxgraph.basic.rounded_frame;dx=3;whiteSpace=wrap;strokeColor=#000000;fillColor=#000000;" parent="1" vertex="1">
          <mxGeometry x="400" y="100" width="820" height="450" as="geometry" />
        </mxCell>
        <mxCell id="frDybwBmybzaQZDUm5jS-12" value="Умный матчинг воркеров под клиентов" style="text;html=1;strokeColor=none;fillColor=none;align=left;verticalAlign=top;whiteSpace=wrap;rounded=0;" parent="1" vertex="1">
          <mxGeometry x="406" y="110" width="230.5" height="30" as="geometry" />
        </mxCell>
        <mxCell id="frDybwBmybzaQZDUm5jS-13" value="" style="verticalLabelPosition=bottom;verticalAlign=top;html=1;shape=mxgraph.basic.rounded_frame;dx=3;whiteSpace=wrap;fillColor=#000000;" parent="1" vertex="1">
          <mxGeometry x="1340" y="230" width="480" height="340" as="geometry" />
        </mxCell>
        <mxCell id="frDybwBmybzaQZDUm5jS-14" value="Контроль качества работы воркеров" style="text;html=1;strokeColor=none;fillColor=none;align=left;verticalAlign=top;whiteSpace=wrap;rounded=0;" parent="1" vertex="1">
          <mxGeometry x="1350" y="240" width="217.5" height="30" as="geometry" />
        </mxCell>
        <mxCell id="frDybwBmybzaQZDUm5jS-15" value="" style="verticalLabelPosition=bottom;verticalAlign=top;html=1;shape=mxgraph.basic.rounded_frame;dx=3;whiteSpace=wrap;fillColor=#000000;" parent="1" vertex="1">
          <mxGeometry x="1339.38" y="2170" width="760" height="360" as="geometry" />
        </mxCell>
        <mxCell id="frDybwBmybzaQZDUm5jS-16" value="Расчет и выплата зп воркерам" style="text;html=1;strokeColor=none;fillColor=none;align=left;verticalAlign=top;whiteSpace=wrap;rounded=0;" parent="1" vertex="1">
          <mxGeometry x="1350.88" y="2180" width="277.5" height="30" as="geometry" />
        </mxCell>
        <mxCell id="frDybwBmybzaQZDUm5jS-25" style="edgeStyle=orthogonalEdgeStyle;rounded=0;orthogonalLoop=1;jettySize=auto;html=1;exitX=0.5;exitY=1;exitDx=0;exitDy=0;entryX=1;entryY=0.5;entryDx=0;entryDy=0;" parent="1" source="frDybwBmybzaQZDUm5jS-21" target="kmM2w1-RMvAD6R8R6hfU-37" edge="1">
          <mxGeometry relative="1" as="geometry" />
        </mxCell>
        <mxCell id="frDybwBmybzaQZDUm5jS-26" value="&amp;nbsp;has many&amp;nbsp;" style="edgeLabel;html=1;align=center;verticalAlign=middle;resizable=0;points=[];" parent="frDybwBmybzaQZDUm5jS-25" vertex="1" connectable="0">
          <mxGeometry x="-0.3155" relative="1" as="geometry">
            <mxPoint as="offset" />
          </mxGeometry>
        </mxCell>
        <mxCell id="frDybwBmybzaQZDUm5jS-21" value="Методика отбора" style="rounded=1;whiteSpace=wrap;html=1;" parent="1" vertex="1">
          <mxGeometry x="990" y="1750" width="120" height="60" as="geometry" />
        </mxCell>
        <mxCell id="frDybwBmybzaQZDUm5jS-32" value="Расходники" style="rounded=1;whiteSpace=wrap;html=1;" parent="1" vertex="1">
          <mxGeometry x="1737.52" y="1300" width="120" height="60" as="geometry" />
        </mxCell>
        <mxCell id="frDybwBmybzaQZDUm5jS-36" value="&amp;nbsp;has many&amp;nbsp;" style="edgeStyle=orthogonalEdgeStyle;rounded=0;orthogonalLoop=1;jettySize=auto;html=1;exitX=0;exitY=0.5;exitDx=0;exitDy=0;entryX=1;entryY=0.5;entryDx=0;entryDy=0;" parent="1" source="frDybwBmybzaQZDUm5jS-34" target="w28DLQlOVZBrRj4EJd5n-327" edge="1">
          <mxGeometry relative="1" as="geometry" />
        </mxCell>
        <mxCell id="frDybwBmybzaQZDUm5jS-34" value="Расписание" style="rounded=1;whiteSpace=wrap;html=1;" parent="1" vertex="1">
          <mxGeometry x="1899.38" y="1790" width="120" height="60" as="geometry" />
        </mxCell>
        <mxCell id="frDybwBmybzaQZDUm5jS-43" value="" style="endArrow=classic;html=1;rounded=0;strokeWidth=2;strokeColor=#97D077;dashed=1;dashPattern=12 12;exitX=1;exitY=0.25;exitDx=0;exitDy=0;entryX=0.5;entryY=1;entryDx=0;entryDy=0;" parent="1" source="kmM2w1-RMvAD6R8R6hfU-57" target="kmM2w1-RMvAD6R8R6hfU-95" edge="1">
          <mxGeometry width="50" height="50" relative="1" as="geometry">
            <mxPoint x="1160" y="869.44" as="sourcePoint" />
            <mxPoint x="1280" y="869.44" as="targetPoint" />
            <Array as="points">
              <mxPoint x="1260" y="1055" />
              <mxPoint x="1260" y="580" />
              <mxPoint x="643" y="580" />
            </Array>
          </mxGeometry>
        </mxCell>
        <mxCell id="frDybwBmybzaQZDUm5jS-44" value="" style="endArrow=classic;html=1;rounded=0;strokeWidth=2;strokeColor=#97D077;dashed=1;dashPattern=12 12;exitX=0.5;exitY=1;exitDx=0;exitDy=0;entryX=0;entryY=0.5;entryDx=0;entryDy=0;" parent="1" source="kmM2w1-RMvAD6R8R6hfU-64" target="w28DLQlOVZBrRj4EJd5n-317" edge="1">
          <mxGeometry width="50" height="50" relative="1" as="geometry">
            <mxPoint x="680" y="1440" as="sourcePoint" />
            <mxPoint x="1280" y="1440" as="targetPoint" />
            <Array as="points">
              <mxPoint x="761" y="1440" />
              <mxPoint x="1240" y="1440" />
              <mxPoint x="1240" y="1820" />
            </Array>
          </mxGeometry>
        </mxCell>
        <mxCell id="frDybwBmybzaQZDUm5jS-45" value="" style="endArrow=classic;html=1;rounded=0;strokeWidth=2;strokeColor=#97D077;dashed=1;dashPattern=12 12;entryX=0;entryY=0.5;entryDx=0;entryDy=0;exitX=1;exitY=0.5;exitDx=0;exitDy=0;" parent="1" source="kmM2w1-RMvAD6R8R6hfU-57" target="w28DLQlOVZBrRj4EJd5n-299" edge="1">
          <mxGeometry width="50" height="50" relative="1" as="geometry">
            <mxPoint x="1140" y="1050" as="sourcePoint" />
            <mxPoint x="1258.75" y="1069.44" as="targetPoint" />
            <Array as="points">
              <mxPoint x="1280" y="1070" />
              <mxPoint x="1280" y="770" />
              <mxPoint x="1280" y="460" />
            </Array>
          </mxGeometry>
        </mxCell>
        <mxCell id="frDybwBmybzaQZDUm5jS-46" value="" style="endArrow=classic;html=1;rounded=0;strokeWidth=2;strokeColor=#97D077;dashed=1;dashPattern=12 12;entryX=0;entryY=0.5;entryDx=0;entryDy=0;exitX=1.002;exitY=0.829;exitDx=0;exitDy=0;exitPerimeter=0;" parent="1" source="kmM2w1-RMvAD6R8R6hfU-57" target="w28DLQlOVZBrRj4EJd5n-280" edge="1">
          <mxGeometry width="50" height="50" relative="1" as="geometry">
            <mxPoint x="1140" y="1069.68" as="sourcePoint" />
            <mxPoint x="1260" y="1069.68" as="targetPoint" />
            <Array as="points">
              <mxPoint x="1320" y="1090" />
              <mxPoint x="1320" y="780" />
            </Array>
          </mxGeometry>
        </mxCell>
        <mxCell id="frDybwBmybzaQZDUm5jS-47" value="" style="endArrow=classic;html=1;rounded=0;strokeWidth=2;strokeColor=#97D077;dashed=1;dashPattern=12 12;entryX=0.5;entryY=0;entryDx=0;entryDy=0;exitX=0.75;exitY=1;exitDx=0;exitDy=0;" parent="1" source="kmM2w1-RMvAD6R8R6hfU-57" target="kmM2w1-RMvAD6R8R6hfU-127" edge="1">
          <mxGeometry width="50" height="50" relative="1" as="geometry">
            <mxPoint x="1138.75" y="1088.89" as="sourcePoint" />
            <mxPoint x="1258.75" y="1088.89" as="targetPoint" />
            <Array as="points">
              <mxPoint x="1110" y="1160" />
              <mxPoint x="1480" y="1160" />
            </Array>
          </mxGeometry>
        </mxCell>
        <mxCell id="frDybwBmybzaQZDUm5jS-51" value="Воркер&lt;br&gt;(исполнитель заказа)" style="rounded=1;whiteSpace=wrap;html=1;" parent="1" vertex="1">
          <mxGeometry x="420" y="420" width="120" height="60" as="geometry" />
        </mxCell>
        <mxCell id="frDybwBmybzaQZDUm5jS-54" value="" style="endArrow=classic;html=1;rounded=0;strokeWidth=2;strokeColor=#97D077;dashed=1;dashPattern=12 12;exitX=0.25;exitY=0;exitDx=0;exitDy=0;entryX=0.5;entryY=0;entryDx=0;entryDy=0;" parent="1" source="kmM2w1-RMvAD6R8R6hfU-28" target="kmM2w1-RMvAD6R8R6hfU-84" edge="1">
          <mxGeometry width="50" height="50" relative="1" as="geometry">
            <mxPoint x="792.5" y="1480" as="sourcePoint" />
            <mxPoint x="280" y="1480" as="targetPoint" />
            <Array as="points">
              <mxPoint x="770" y="1480" />
              <mxPoint x="280" y="1480" />
              <mxPoint x="280" y="80" />
              <mxPoint x="851" y="80" />
            </Array>
          </mxGeometry>
        </mxCell>
        <mxCell id="frDybwBmybzaQZDUm5jS-58" value="" style="endArrow=classic;html=1;rounded=0;strokeWidth=2;strokeColor=#97D077;dashed=1;dashPattern=12 12;entryX=0;entryY=0.5;entryDx=0;entryDy=0;" parent="1" target="w28DLQlOVZBrRj4EJd5n-331" edge="1">
          <mxGeometry width="50" height="50" relative="1" as="geometry">
            <mxPoint x="860" y="1600" as="sourcePoint" />
            <mxPoint x="980" y="1600" as="targetPoint" />
            <Array as="points">
              <mxPoint x="1200" y="1600" />
              <mxPoint x="1200" y="2280" />
            </Array>
          </mxGeometry>
        </mxCell>
        <mxCell id="frDybwBmybzaQZDUm5jS-60" value="" style="endArrow=classic;html=1;rounded=0;strokeWidth=2;strokeColor=#97D077;dashed=1;dashPattern=12 12;exitX=0.5;exitY=1;exitDx=0;exitDy=0;entryX=0.5;entryY=0;entryDx=0;entryDy=0;" parent="1" source="frDybwBmybzaQZDUm5jS-51" target="kmM2w1-RMvAD6R8R6hfU-89" edge="1">
          <mxGeometry width="50" height="50" relative="1" as="geometry">
            <mxPoint x="861.25" y="704.44" as="sourcePoint" />
            <mxPoint x="981.25" y="704.44" as="targetPoint" />
            <Array as="points">
              <mxPoint x="480" y="610" />
              <mxPoint x="1080" y="610" />
            </Array>
          </mxGeometry>
        </mxCell>
        <mxCell id="frDybwBmybzaQZDUm5jS-63" value="" style="endArrow=classic;html=1;rounded=0;strokeWidth=2;strokeColor=#97D077;dashed=1;dashPattern=12 12;exitX=0.5;exitY=0;exitDx=0;exitDy=0;entryX=0.5;entryY=1;entryDx=0;entryDy=0;" parent="1" source="kmM2w1-RMvAD6R8R6hfU-28" target="frDybwBmybzaQZDUm5jS-64" edge="1">
          <mxGeometry width="50" height="50" relative="1" as="geometry">
            <mxPoint x="930" y="1540" as="sourcePoint" />
            <mxPoint x="1050" y="1540" as="targetPoint" />
            <Array as="points">
              <mxPoint x="800" y="1460" />
              <mxPoint x="500" y="1460" />
            </Array>
          </mxGeometry>
        </mxCell>
        <mxCell id="frDybwBmybzaQZDUm5jS-64" value="Воркер" style="rounded=1;whiteSpace=wrap;html=1;strokeWidth=2;strokeColor=#97D077;" parent="1" vertex="1">
          <mxGeometry x="440" y="1180.5" width="120" height="60" as="geometry" />
        </mxCell>
        <mxCell id="eW2-b08OkGmagCqz1LRZ-1" value="Вакансия" style="rounded=1;whiteSpace=wrap;html=1;" vertex="1" parent="1">
          <mxGeometry x="461.25" y="1750" width="120" height="60" as="geometry" />
        </mxCell>
      </root>
    </mxGraphModel>
  </diagram>
</mxfile>
